<svg id="Component_15" data-name="Component 15" xmlns="http://www.w3.org/2000/svg" width="123" height="123" viewBox="0 0 123 123">
  <rect id="Rectangle_397" data-name="Rectangle 397" width="123" height="123" fill="#4273f5"/>
  <path id="Path_312" data-name="Path 312" d="M96.71,75.812c0,2.847.007,5.695,0,8.542-.01,3.345-1.822,5.177-5.135,5.18q-8.488.01-16.975,0c-3.081-.006-4.924-1.832-4.93-4.893q-.017-8.871,0-17.742c0-1.576.135-1.75,1.73-1.861a36.059,36.059,0,0,1,3.61-.059c.9.028,1.265-.255,1.349-1.223.317-3.652,2.438-6,5.793-6.587a6.781,6.781,0,0,1,7.777,6.3c.069,1.824.068,1.515,1.576,1.5.876-.006,1.752,0,2.628,0,2.407,0,2.578.167,2.579,2.525q0,4.162,0,8.323m-2.2.865h0V70.432c0-3.345,0-3.349-3.405-3.262-.382.01-.878-.135-1.06.347a1.514,1.514,0,0,0,.137,1.464c.127.178.291.329.415.509a1.827,1.827,0,0,1,.072,2.154,2.046,2.046,0,0,1-3.709-.385,1.836,1.836,0,0,1,.452-2.02,1.5,1.5,0,0,0,.357-1.712c-.249-.6-.9-.35-1.374-.356-2.227-.023-4.455-.018-6.683-.005-1.186.007-1.582.737-.982,1.789.126.221.317.4.44.627a2.072,2.072,0,0,1-.409,2.6,2.062,2.062,0,0,1-3.108-2.624c.143-.253.37-.461.5-.719.479-.982.089-1.648-.977-1.67-.8-.016-1.608.029-2.41,0-.756-.032-1.03.288-1.028,1.036.018,5.515,0,11.03.021,16.544a2.437,2.437,0,0,0,2.666,2.684q8.71.051,17.421,0c1.829-.013,2.651-.933,2.661-2.748.015-2.666,0-5.332,0-8m-11.326-11.6c1.276,0,2.553-.012,3.83.005.593.008.834-.22.86-.835a4.689,4.689,0,0,0-4.664-5,4.555,4.555,0,0,0-4.721,4.891c.016.723.285.966.975.949,1.24-.03,2.48-.008,3.72-.009" transform="translate(-21.407 -11.58)" fill="#fff" stroke="#fff" stroke-width="0.5"/>
</svg>
