<svg id="Group_23" data-name="Group 23" xmlns="http://www.w3.org/2000/svg" xmlns:xlink="http://www.w3.org/1999/xlink" width="93.243" height="88.449" viewBox="0 0 93.243 88.449">
  <defs>
    <clipPath id="clip-path">
      <rect id="Rectangle_412" data-name="Rectangle 412" width="93.243" height="88.449" fill="none"/>
    </clipPath>
  </defs>
  <rect id="Rectangle_411" data-name="Rectangle 411" width="93.23" height="16.147" transform="translate(0.007 72.302)" fill="#fff"/>
  <path id="Path_293" data-name="Path 293" d="M12.807,1.064,0,12.18V26.962L12.807,15.8V61.1H26.641V1.064Z" transform="translate(0 -0.767)" fill="#fff"/>
  <g id="Group_12" data-name="Group 12" transform="translate(0)">
    <g id="Group_11" data-name="Group 11" clip-path="url(#clip-path)">
      <path id="Path_294" data-name="Path 294" d="M201.451,54.888l-7.428,7.432-4.614-4.573a22.687,22.687,0,0,1-11.534,2.746,26.091,26.091,0,0,1-6.546-.755,20.441,20.441,0,0,1-5.379-2.224,23.116,23.116,0,0,1-4.668-3.715,17.63,17.63,0,0,1-4.974-8.9,62.482,62.482,0,0,1-1.061-12.653v-4a62.787,62.787,0,0,1,1.061-12.673,17.647,17.647,0,0,1,4.974-8.925A22.6,22.6,0,0,1,168.6,1.632a27.191,27.191,0,0,1,18.616.021,22.688,22.688,0,0,1,7.3,5,17.462,17.462,0,0,1,4,6.063,26.134,26.134,0,0,1,1.651,6.959q.343,3.6.343,8.582v2q0,4.894-.161,8.04a36.988,36.988,0,0,1-.9,6.347,20.365,20.365,0,0,1-2.368,5.935ZM185.9,30.237a68.441,68.441,0,0,0-.511-10.367,9.78,9.78,0,0,0-1.651-4.243,5.943,5.943,0,0,0-2.4-1.878,8.135,8.135,0,0,0-3.491-.735,7.832,7.832,0,0,0-3.388.714,6.761,6.761,0,0,0-2.447,1.9,7.843,7.843,0,0,0-1.2,2.3,19,19,0,0,0-.714,4.206q-.244,2.838-.244,8.1t.244,8.06a18.568,18.568,0,0,0,.714,4.184,7.888,7.888,0,0,0,1.2,2.286,6.954,6.954,0,0,0,5.836,2.694,6.348,6.348,0,0,0,1.184-.082l-3.755-3.755,7.428-7.47,2.856,2.856q.344-4,.344-8.77Z" transform="translate(-111.899 0)" fill="#fff"/>
      <path id="Path_295" data-name="Path 295" d="M234.5,129.509l22.423,22.419-7.428,7.429-22.423-22.382Z" transform="translate(-163.68 -93.354)" fill="#fff"/>
      <path id="Path_296" data-name="Path 296" d="M25.485,281.32l-.911.912-.566-.561a2.782,2.782,0,0,1-1.415.337,3.22,3.22,0,0,1-.8-.093,2.515,2.515,0,0,1-.66-.273,2.83,2.83,0,0,1-.573-.456,2.159,2.159,0,0,1-.61-1.092,7.679,7.679,0,0,1-.13-1.552v-.491a7.7,7.7,0,0,1,.13-1.554,2.162,2.162,0,0,1,.61-1.1,2.769,2.769,0,0,1,.9-.616,3.337,3.337,0,0,1,2.284,0,2.784,2.784,0,0,1,.9.614,2.146,2.146,0,0,1,.49.744,3.211,3.211,0,0,1,.2.854q.042.441.042,1.053v.246q0,.6-.02.986a4.557,4.557,0,0,1-.111.779,2.488,2.488,0,0,1-.291.728ZM23.578,278.3a8.35,8.35,0,0,0-.063-1.272,1.2,1.2,0,0,0-.2-.52.729.729,0,0,0-.295-.23.994.994,0,0,0-.428-.09.961.961,0,0,0-.416.087.833.833,0,0,0-.3.233.955.955,0,0,0-.148.283,2.32,2.32,0,0,0-.088.516q-.03.348-.03.994t.03.989a2.272,2.272,0,0,0,.088.513.966.966,0,0,0,.148.281.852.852,0,0,0,.716.33.717.717,0,0,0,.145-.01l-.461-.46.911-.917.35.35q.042-.49.042-1.076Z" transform="translate(-14.284 -197.93)"/>
      <path id="Path_297" data-name="Path 297" d="M65.363,279.538a2.623,2.623,0,0,1-.215,1.066,2.455,2.455,0,0,1-.6.843,2.653,2.653,0,0,1-.891.533,3.125,3.125,0,0,1-1.071.183,3,3,0,0,1-1.384-.325,2.477,2.477,0,0,1-1.006-.924,2.572,2.572,0,0,1-.368-1.375V274.8h1.793v4.7a1.115,1.115,0,0,0,.259.784.915.915,0,0,0,.71.283,1.052,1.052,0,0,0,.517-.127.831.831,0,0,0,.347-.365,1.268,1.268,0,0,0,.12-.576v-4.7h1.793Z" transform="translate(-43.123 -198.085)"/>
      <path id="Path_298" data-name="Path 298" d="M104.661,282.1h-1.873l-.34-1.087H100.2l-.355,1.087H97.967l2.653-7.3h1.387Zm-2.684-2.583-.616-1.948-.656,1.948Z" transform="translate(-70.618 -198.084)"/>
      <path id="Path_299" data-name="Path 299" d="M146.47,282.1H144.4l-1.3-2.719H142.5V282.1H140.7v-7.3h2.892a2.622,2.622,0,0,1,1.348.328,2.229,2.229,0,0,1,.853.864,2.381,2.381,0,0,1,.293,1.157,1.973,1.973,0,0,1-.347,1.174,2.261,2.261,0,0,1-.842.734Zm-2.178-4.949a.745.745,0,0,0-.093-.364.694.694,0,0,0-.271-.272.816.816,0,0,0-.414-.1h-1.019v1.474h1.019a.817.817,0,0,0,.414-.1.706.706,0,0,0,.271-.27.733.733,0,0,0,.093-.363Z" transform="translate(-101.423 -198.081)"/>
      <path id="Path_300" data-name="Path 300" d="M184.567,276.4h-1.8v5.7h-1.793v-5.7h-1.8v-1.6h5.387Z" transform="translate(-129.158 -198.084)"/>
      <path id="Path_301" data-name="Path 301" d="M223.284,282.1h-4.962v-7.3h4.962v1.6h-3.169v1.221h2.709v1.6h-2.709V280.5h3.169Z" transform="translate(-157.373 -198.084)"/>
      <path id="Path_302" data-name="Path 302" d="M262.52,282.1h-2.073l-1.295-2.719h-.608V282.1h-1.792v-7.3h2.891a2.62,2.62,0,0,1,1.348.328,2.228,2.228,0,0,1,.853.864,2.378,2.378,0,0,1,.293,1.157,1.974,1.974,0,0,1-.347,1.174,2.262,2.262,0,0,1-.842.734Zm-2.178-4.949a.749.749,0,0,0-.093-.364.694.694,0,0,0-.271-.272.816.816,0,0,0-.414-.1h-1.019v1.474h1.019a.817.817,0,0,0,.414-.1.708.708,0,0,0,.271-.27.736.736,0,0,0,.093-.363Z" transform="translate(-185.075 -198.081)"/>
      <path id="Path_303" data-name="Path 303" d="M299.9,279.71a2.046,2.046,0,0,1-.379,1.237,2.344,2.344,0,0,1-1.022.789,3.661,3.661,0,0,1-1.42.268,5.182,5.182,0,0,1-1.577-.215,2.888,2.888,0,0,1-1.191-.746l1.152-1.152a1.584,1.584,0,0,0,.71.393,3.4,3.4,0,0,0,.917.123q1.046,0,1.046-.656a.6.6,0,0,0-.145-.431.8.8,0,0,0-.48-.2l-.881-.126a2.448,2.448,0,0,1-1.467-.646,2.023,2.023,0,0,1-.5-1.467,2.22,2.22,0,0,1,.323-1.189,2.191,2.191,0,0,1,.926-.819,3.178,3.178,0,0,1,1.415-.295,4.318,4.318,0,0,1,1.409.208,2.7,2.7,0,0,1,1.053.663l-1.126,1.126a1.256,1.256,0,0,0-.606-.355,3.518,3.518,0,0,0-.781-.076.944.944,0,0,0-.656.206.622.622,0,0,0-.225.471.467.467,0,0,0,.145.341.85.85,0,0,0,.5.215l.881.121a2.52,2.52,0,0,1,1.437.606,1.6,1.6,0,0,1,.413.668,3.036,3.036,0,0,1,.131.934" transform="translate(-212.147 -197.927)"/>
      <path id="Path_304" data-name="Path 304" d="M29.54,290.475l2.751,2.75-.911.911-2.751-2.746Z" transform="translate(-20.636 -209.383)"/>
    </g>
  </g>
</svg>
