<svg xmlns="http://www.w3.org/2000/svg" xmlns:xlink="http://www.w3.org/1999/xlink" width="71.989" height="68.288" viewBox="0 0 71.989 68.288">
  <defs>
    <clipPath id="clip-path">
      <rect id="Rectangle_412" data-name="Rectangle 412" width="71.989" height="68.288" fill="none"/>
    </clipPath>
  </defs>
  <g id="Group_13" data-name="Group 13" transform="translate(0)">
    <rect id="Rectangle_411" data-name="Rectangle 411" width="71.979" height="12.466" transform="translate(0.005 55.821)"/>
    <path id="Path_293" data-name="Path 293" d="M9.888,1.064,0,9.646V21.059l9.888-8.617V47.413H20.568V1.064Z" transform="translate(0 -0.834)" fill="#4273f5"/>
    <g id="Group_12" data-name="Group 12" transform="translate(0)">
      <g id="Group_11" data-name="Group 11" clip-path="url(#clip-path)">
        <path id="Path_294" data-name="Path 294" d="M190.917,42.377l-5.735,5.738-3.562-3.53a17.515,17.515,0,0,1-8.9,2.12,20.143,20.143,0,0,1-5.054-.583,15.782,15.782,0,0,1-4.153-1.717,17.847,17.847,0,0,1-3.6-2.868,13.611,13.611,0,0,1-3.84-6.87,48.24,48.24,0,0,1-.819-9.769V21.81a48.476,48.476,0,0,1,.819-9.785,13.624,13.624,0,0,1,3.84-6.891,17.448,17.448,0,0,1,5.653-3.874,20.993,20.993,0,0,1,14.373.016,17.516,17.516,0,0,1,5.637,3.862,13.482,13.482,0,0,1,3.085,4.681,20.177,20.177,0,0,1,1.275,5.372q.265,2.776.265,6.626v1.545q0,3.778-.125,6.207a28.559,28.559,0,0,1-.694,4.9,15.723,15.723,0,0,1-1.829,4.583ZM178.911,23.345a52.84,52.84,0,0,0-.395-8,7.551,7.551,0,0,0-1.275-3.276,4.588,4.588,0,0,0-1.855-1.45,6.281,6.281,0,0,0-2.7-.567,6.047,6.047,0,0,0-2.616.551,5.22,5.22,0,0,0-1.89,1.466,6.056,6.056,0,0,0-.93,1.778,14.667,14.667,0,0,0-.551,3.247q-.188,2.191-.188,6.255t.188,6.223a14.334,14.334,0,0,0,.551,3.231,6.091,6.091,0,0,0,.93,1.765,5.369,5.369,0,0,0,4.506,2.08,4.9,4.9,0,0,0,.914-.063l-2.9-2.9,5.735-5.767,2.2,2.205q.265-3.087.265-6.771Z" transform="translate(-121.777 0)"/>
        <path id="Path_295" data-name="Path 295" d="M232.807,129.509l17.312,17.309-5.735,5.735-17.312-17.28Z" transform="translate(-178.13 -101.595)" fill="#4273f5"/>
        <path id="Path_296" data-name="Path 296" d="M24.193,279.785l-.7.7-.437-.433a2.148,2.148,0,0,1-1.092.26,2.485,2.485,0,0,1-.62-.072,1.941,1.941,0,0,1-.51-.211,2.184,2.184,0,0,1-.442-.352,1.667,1.667,0,0,1-.471-.843,5.929,5.929,0,0,1-.1-1.2v-.379a5.945,5.945,0,0,1,.1-1.2,1.669,1.669,0,0,1,.471-.846,2.138,2.138,0,0,1,.693-.475,2.576,2.576,0,0,1,1.763,0,2.149,2.149,0,0,1,.692.474,1.656,1.656,0,0,1,.378.574,2.479,2.479,0,0,1,.156.659q.032.34.032.813v.19q0,.463-.015.761a3.518,3.518,0,0,1-.085.6,1.921,1.921,0,0,1-.224.562Zm-1.473-2.335a6.446,6.446,0,0,0-.048-.982.924.924,0,0,0-.156-.4.563.563,0,0,0-.228-.178.768.768,0,0,0-.331-.07.742.742,0,0,0-.321.067.643.643,0,0,0-.232.18.737.737,0,0,0-.114.218,1.791,1.791,0,0,0-.068.4q-.023.269-.023.768t.023.763a1.754,1.754,0,0,0,.068.4.746.746,0,0,0,.114.217.658.658,0,0,0,.553.255.554.554,0,0,0,.112-.008l-.356-.355.7-.708.271.271q.033-.379.033-.831Z" transform="translate(-15.545 -215.404)" fill="#fff"/>
        <path id="Path_297" data-name="Path 297" d="M64.1,278.459a2.025,2.025,0,0,1-.166.823,1.9,1.9,0,0,1-.464.651,2.047,2.047,0,0,1-.688.412,2.413,2.413,0,0,1-.827.141,2.315,2.315,0,0,1-1.069-.251,1.912,1.912,0,0,1-.777-.713,1.986,1.986,0,0,1-.284-1.061V274.8h1.384v3.626a.861.861,0,0,0,.2.6.706.706,0,0,0,.548.218.812.812,0,0,0,.4-.1.642.642,0,0,0,.268-.282.979.979,0,0,0,.093-.444V274.8H64.1Z" transform="translate(-46.93 -215.572)" fill="#fff"/>
        <path id="Path_298" data-name="Path 298" d="M103.136,280.436H101.69l-.263-.839H99.691l-.274.839h-1.45l2.048-5.636h1.071Zm-2.072-1.995-.475-1.5-.507,1.5Z" transform="translate(-76.852 -215.571)" fill="#fff"/>
        <path id="Path_299" data-name="Path 299" d="M145.155,280.433h-1.6l-1-2.1h-.469v2.1H140.7V274.8h2.233a2.024,2.024,0,0,1,1.04.254,1.721,1.721,0,0,1,.659.667,1.838,1.838,0,0,1,.226.893,1.523,1.523,0,0,1-.268.906,1.746,1.746,0,0,1-.65.566Zm-1.682-3.821a.576.576,0,0,0-.072-.281.536.536,0,0,0-.21-.21.63.63,0,0,0-.32-.079h-.787v1.138h.787a.631.631,0,0,0,.32-.079.545.545,0,0,0,.21-.208.566.566,0,0,0,.072-.28Z" transform="translate(-110.376 -215.568)" fill="#fff"/>
        <path id="Path_300" data-name="Path 300" d="M183.339,276.033h-1.388v4.4h-1.384v-4.4H179.18V274.8h4.159Z" transform="translate(-140.56 -215.571)" fill="#fff"/>
        <path id="Path_301" data-name="Path 301" d="M222.153,280.437h-3.831V274.8h3.831v1.233h-2.447v.943H221.8v1.233h-2.091v.993h2.447Z" transform="translate(-171.266 -215.571)" fill="#fff"/>
        <path id="Path_302" data-name="Path 302" d="M261.206,280.433h-1.6l-1-2.1h-.469v2.1h-1.384V274.8h2.232a2.023,2.023,0,0,1,1.04.254,1.72,1.72,0,0,1,.658.667,1.836,1.836,0,0,1,.226.893,1.524,1.524,0,0,1-.268.906,1.746,1.746,0,0,1-.65.566Zm-1.682-3.821a.578.578,0,0,0-.072-.281.536.536,0,0,0-.21-.21.631.631,0,0,0-.32-.079h-.787v1.138h.787a.631.631,0,0,0,.32-.079.547.547,0,0,0,.21-.208.568.568,0,0,0,.072-.28Z" transform="translate(-201.414 -215.568)" fill="#fff"/>
        <path id="Path_303" data-name="Path 303" d="M298.625,278.541a1.58,1.58,0,0,1-.293.955,1.81,1.81,0,0,1-.789.609,2.827,2.827,0,0,1-1.1.207,4,4,0,0,1-1.218-.166,2.23,2.23,0,0,1-.92-.576l.889-.889a1.223,1.223,0,0,0,.549.3,2.628,2.628,0,0,0,.708.095q.808,0,.808-.507a.459.459,0,0,0-.112-.333.619.619,0,0,0-.371-.151l-.68-.1a1.89,1.89,0,0,1-1.133-.5,1.562,1.562,0,0,1-.387-1.132,1.714,1.714,0,0,1,.25-.918,1.691,1.691,0,0,1,.715-.632,2.454,2.454,0,0,1,1.092-.227,3.335,3.335,0,0,1,1.088.161,2.087,2.087,0,0,1,.813.512l-.87.87a.97.97,0,0,0-.468-.274,2.716,2.716,0,0,0-.6-.058.729.729,0,0,0-.507.159.48.48,0,0,0-.174.364.36.36,0,0,0,.112.263.656.656,0,0,0,.387.166l.68.093a1.946,1.946,0,0,1,1.109.467,1.237,1.237,0,0,1,.319.516,2.346,2.346,0,0,1,.1.721" transform="translate(-230.876 -215.4)" fill="#fff"/>
        <path id="Path_304" data-name="Path 304" d="M29.332,290.475l2.124,2.123-.7.7-2.124-2.12Z" transform="translate(-22.458 -227.867)" fill="#fff"/>
      </g>
    </g>
  </g>
</svg>
