<svg xmlns="http://www.w3.org/2000/svg" width="52.243" height="42.448" viewBox="0 0 52.243 42.448">
  <path id="paragraph-justify" d="M188.243,172.265v3.265a3.266,3.266,0,0,1-3.265,3.265H145.8a3.266,3.266,0,0,1-3.265-3.265v-3.265A3.266,3.266,0,0,1,145.8,169h39.182A3.266,3.266,0,0,1,188.243,172.265Zm-3.265,13.061H139.265A3.266,3.266,0,0,0,136,188.591v3.265a3.266,3.266,0,0,0,3.265,3.265h45.713a3.266,3.266,0,0,0,3.265-3.265v-3.265A3.266,3.266,0,0,0,184.978,185.326Zm0,16.326H139.265A3.266,3.266,0,0,0,136,204.917v3.265a3.266,3.266,0,0,0,3.265,3.265h45.713a3.266,3.266,0,0,0,3.265-3.265v-3.265A3.266,3.266,0,0,0,184.978,201.652Z" transform="translate(-136 -169)"/>
</svg>
