<svg xmlns="http://www.w3.org/2000/svg" width="32.922" height="39.425" viewBox="0 0 32.922 39.425">
  <path id="Path_312" data-name="Path 312" d="M102.081,79.532c0,3.413.008,6.826,0,10.238-.012,4.009-2.184,6.2-6.155,6.209q-10.173.011-20.346,0c-3.693-.008-5.9-2.2-5.908-5.864q-.021-10.632,0-21.264c0-1.889.162-2.1,2.073-2.231a43.219,43.219,0,0,1,4.327-.07c1.084.034,1.517-.305,1.617-1.466.38-4.377,2.922-7.2,6.943-7.9a8.127,8.127,0,0,1,9.321,7.546c.083,2.186.082,1.815,1.889,1.8,1.05-.007,2.1-.005,3.15,0,2.885,0,3.09.2,3.091,3.027q0,4.988,0,9.976M99.448,80.57h0V73.085c0-4.01,0-4.014-4.082-3.91-.457.012-1.053-.161-1.27.416a1.815,1.815,0,0,0,.164,1.755c.152.213.349.394.5.61a2.19,2.19,0,0,1,.086,2.582,2.453,2.453,0,0,1-4.446-.461,2.2,2.2,0,0,1,.542-2.421,1.8,1.8,0,0,0,.427-2.052c-.3-.723-1.076-.42-1.647-.426-2.67-.028-5.34-.021-8.01-.006-1.422.008-1.9.884-1.177,2.144.151.264.379.485.527.751a2.484,2.484,0,0,1-.49,3.11,2.472,2.472,0,0,1-3.726-3.145c.172-.3.444-.552.595-.862.575-1.178.106-1.976-1.171-2-.963-.019-1.927.035-2.889-.005-.907-.038-1.235.345-1.232,1.242.022,6.61-.005,13.22.025,19.829a2.921,2.921,0,0,0,3.2,3.217q10.44.061,20.88,0c2.193-.016,3.178-1.118,3.189-3.294.018-3.2,0-6.391,0-9.586M85.873,66.664c1.53,0,3.06-.015,4.59.006.711.01,1-.264,1.031-1a5.621,5.621,0,0,0-5.59-5.995,5.459,5.459,0,0,0-5.659,5.862c.019.867.341,1.157,1.168,1.138,1.486-.035,2.973-.01,4.459-.01" transform="translate(-69.412 -56.811)" fill="#fff" stroke="#fff" stroke-width="0.5"/>
</svg>
