<svg xmlns="http://www.w3.org/2000/svg" width="22.258" height="19.592" viewBox="0 0 22.258 19.592">
  <path id="heart-empty" d="M307.92,43.291a.7.7,0,0,1-1.057-.013c-3.879-4.715-10.609-1.04-10.609,4.039,0,4.451,5.524,8.026,10.094,12.928a1.42,1.42,0,0,0,2.069,0c4.57-4.9,10.094-8.477,10.094-12.928C318.512,42.234,311.985,38.557,307.92,43.291ZM310,54.25c-.6.565-1.207,1.138-1.819,1.73a1.15,1.15,0,0,1-1.6,0c-.612-.593-1.22-1.167-1.819-1.731-2.751-2.592-5.348-5.04-5.348-6.934a3.24,3.24,0,0,1,3.09-3.056c1.333,0,2.5,1.023,3.52,1.925l.7.619a.983.983,0,0,0,1.315,0l.655-.579c1.067-.941,2.23-1.964,3.563-1.964a3.24,3.24,0,0,1,3.09,3.056C315.349,49.21,312.753,51.659,310,54.25Z" transform="translate(-296.254 -41.1)"/>
</svg>
