<svg xmlns="http://www.w3.org/2000/svg" width="20.523" height="19.592" viewBox="0 0 20.523 19.592">
  <path id="Path_305" data-name="Path 305" d="M51.751,6.9h-6.69L42.995.533a.771.771,0,0,0-1.466,0L39.461,6.9H32.773a.771.771,0,0,0-.453,1.4l5.411,3.933-2.063,6.355a.774.774,0,0,0,.736,1.013.756.756,0,0,0,.451-.151l5.407-3.928,5.407,3.928a.761.761,0,0,0,.451.151.774.774,0,0,0,.736-1.013l-2.064-6.355L52.2,8.291a.771.771,0,0,0-.453-1.4M44,11.316l1.074,3.31-2.815-2.045-2.814,2.045,1.072-3.31L37.7,9.269h3.484l1.076-3.313,1.076,3.313h3.483Z" transform="translate(-32)"/>
</svg>
